PathFileType	4	(X/Y/Z)	C:/Users/beibeiliu/ov580/test_trc\sequence.12_training_dense_right.trc
DataRate	CameraRate	NumFrames	NumMarkers	Units	OrigDataRate	OrigDataStartFrame	OrigNumFrames
120	120	10	19	mm	120	1	324
Frame#	Time	ThumbCMC			ThumbMCP			ThumbIP			ThumbTip			IndexMCP			IndexPIP			IndexTip			MiddleMCP			MiddlePIP			MiddleTip			RingMCP			RingPIP			RingTip			PinkyMCP			PinkyPIP			PinkyTip			BackHand1			BackHand2			BackHand3	
		X0	Y0	Z0	X1	Y1	Z1	X2	Y2	Z2	X3	Y3	Z3	X4	Y4	Z4	X5	Y5	Z5	X6	Y6	Z6	X7	Y7	Z7	X8	Y8	Z8	X9	Y9	Z9	X10	Y10	Z10	X11	Y11	Z11	X12	Y12	Z12	X13	Y13	Z13	X14	Y14	Z14	X15	Y15	Z15	X16	Y16	Z16	X17	Y17	Z17	X18	Y18	Z18	
0	0	193.979	-25.325	26.6853	175.931	-48.8442	25.1601	163.021	-66.0243	17.0976	151.593	-79.7379	11.5784	196.381	-34.0111	-37.9155	188.98	-41.499	-61.4145	179.916	-44.1815	-76.8883	224.863	-29.6591	-44.3532	222.668	-32.7211	-67.9047	228.372	-34.909	-92.683	243.766	-35.8108	-37.8157	248.968	-42.5745	-59.3155	256.008	-48.4512	-78.7549	262.733	-41.0666	-23.1074	273.218	-49.1471	-34.9628	283.939	-52.2096	-45.7525	238.143	-15.0682	-2.04023	236.514	0.223623	21.0072	211.851	-7.15058	9.07304	
1	0.00833333	191.36	-31.4633	22.8119	181.012	-52.0894	24.1255	165.066	-70.5682	14.7864	151.289	-82.0995	14.5889	195.922	-36.7971	-38.0047	186.411	-41.9385	-60.9628	182.468	-46.8788	-81.7763	220.522	-32.2296	-44.0079	221.729	-35.2061	-72.4374	227.427	-36.3907	-95.1918	241.305	-37.8025	-41.021	252.249	-43.4377	-56.2603	254.191	-50.5206	-79.155	261.298	-42.784	-23.2701	273.523	-51.0526	-36.6264	281.636	-56.1003	-51.4626	237.09	-17.5822	-2.10104	235.985	-3.147	20.746	210.217	-9.94696	5.66917	
2	0.0166667	190.418	-31.5454	26.9358	181.6	-56.9514	21.348	165.424	-73.4174	15.0046	154.727	-86.3955	10.4035	195.7	-37.9916	-39.1391	186.122	-42.6454	-57.8657	183.399	-47.0896	-79.5571	220.141	-32.8938	-49.8223	220.673	-35.4849	-72.8274	227.22	-37.2395	-97.4802	243.357	-37.8384	-40.0893	247.728	-44.2557	-57.9862	254.293	-51.4668	-78.6947	261.872	-42.5598	-26.058	272.132	-51.4196	-35.2444	280.243	-55.0585	-48.9417	237.155	-18.5062	-3.94505	237.914	-4.30298	17.2515	211.321	-10.4239	6.42601	
3	0.025	189.122	-35.7885	24.4546	180.452	-58.3183	23.556	166.983	-77.5664	12.5763	154.601	-91.18	10.2086	193.347	-38.2937	-37.0831	184.915	-43.9278	-62.4431	183.627	-47.3288	-82.0202	223.019	-31.9547	-47.8064	223.733	-34.8246	-74.1774	228.494	-37.4082	-96.1355	241.17	-36.3692	-42.788	249.044	-43.1256	-62.811	252.428	-50.9828	-80.6359	260.969	-41.4913	-25.9078	269.911	-49.8275	-35.4113	283.354	-55.1035	-52.4034	233.131	-17.4326	-4.69171	235.57	-6.19893	20.7824	206.604	-14.4004	4.02395	
4	0.0333333	187.849	-37.8782	22.7804	181.968	-60.835	21.4159	168.291	-78.9348	12.7347	157.008	-94.5301	7.98153	193.681	-37.8858	-41.5772	184.839	-42.1913	-60.2322	183.813	-47.5456	-82.1531	217.61	-32.0378	-45.2771	221.072	-35.0794	-74.8636	224.505	-36.5175	-95.5982	239.37	-36.291	-38.6697	245.746	-43.0612	-64.7661	252.115	-49.541	-83.4653	260.912	-40.0812	-23.8472	272.368	-49.4233	-40.7442	283.09	-55.5457	-53.9411	233.249	-17.2265	-1.68352	237.299	-4.57439	19.8055	211.287	-13.1976	7.25804	
5	0.0416667	188.944	-39.9612	20.9849	184.686	-62.6643	18.6641	172.992	-78.6425	13.3388	160.774	-94.1949	7.4741	190.769	-38.2505	-40.5016	188.038	-41.7521	-64.8451	176.859	-47.3053	-85.2491	219.511	-30.6462	-46.7146	222.514	-32.054	-72.7872	223.402	-35.4654	-95.5519	238.177	-34.7387	-43.8586	247.251	-39.3621	-63.2258	248.405	-48.2047	-81.6637	263.147	-39.5316	-28.1733	268.688	-46.6419	-40.7245	284.397	-52.7198	-56.9174	236.929	-17.6701	-5.21021	234.086	-7.0371	17.041	210.223	-14.7351	2.99153	
6	0.05	191.297	-39.7238	20.3138	182.069	-62.6687	18.9695	168.937	-81.0159	10.8881	159.424	-95.1365	7.8345	191.175	-36.551	-42.2744	182.047	-40.7137	-65.3679	181.618	-45.1577	-86.712	215.545	-28.1679	-49.2458	218.913	-29.9802	-74.6263	223.115	-33.7651	-99.3896	240.936	-30.7094	-44.75	247.119	-36.4928	-65.1963	250.55	-44.574	-83.4575	258.895	-36.458	-28.9431	272.562	-45.6395	-42.5735	283.507	-51.438	-59.2151	232.047	-14.5854	-3.78122	230.732	-5.94451	18.6913	207.056	-14.7316	3.31679	
7	0.0583333	190.097	-38.5713	23.1745	183.128	-63.2924	16.488	171.895	-80.9586	8.39398	160.397	-96.0897	2.92909	188.341	-34.5232	-43.1969	184.285	-39.3197	-68.9793	178.188	-44.0163	-90.1215	216.851	-25.7895	-52.0007	218.302	-27.6662	-77.6569	225.562	-32.4508	-104.898	240.931	-28.7062	-46.6084	247.457	-34.0637	-67.9189	246.783	-42.3529	-85.6381	258.21	-32.866	-29.3972	267.837	-41.2239	-43.1714	282.189	-46.7762	-58.9776	230.154	-13.0165	-9.04334	230.135	-3.36426	19.59	203.68	-12.7664	5.5383	
8	0.0666667	192.358	-38.7353	17.4228	183.558	-62.3382	15.3558	174.306	-78.234	6.635	162.071	-93.9342	1.81634	189.561	-32.6466	-45.3487	182.108	-35.9774	-67.7016	179.428	-40.9715	-86.5791	216.685	-23.0281	-51.1447	218.693	-25.8861	-80.4603	221.497	-30.3742	-99.9248	236.15	-26.046	-43.8295	242.789	-31.7217	-66.4402	247.919	-41.5942	-89.0297	259.504	-30.9346	-31.4171	267.227	-40.711	-46.9856	280.574	-46.4921	-57.2807	233.958	-10.1306	-7.88445	233.059	-2.79062	16.4218	207.111	-11.3748	6.12789	
9	0.075	188.972	-34.8383	22.0131	182.206	-60.7955	14.5157	171.397	-75.5647	6.14057	159.104	-91.5284	-1.62537	190.045	-28.4649	-45.5	179.83	-33.1134	-63.8458	176.194	-39.7202	-88.913	212.058	-20.2357	-53.7875	216.499	-23.5497	-80.4952	218.616	-28.7834	-101.305	235.771	-23.7033	-44.092	239.86	-29.8517	-67.1166	243.61	-40.4598	-87.8821	260.259	-29.5718	-31.2247	266.639	-38.6906	-47.0237	274.955	-45.2838	-62.4962	229.147	-11.4454	-4.60026	232.898	-2.56043	15.6612	208.109	-7.05558	6.51704	
